<svg xmlns="http://www.w3.org/2000/svg" xmlns:xlink="http://www.w3.org/1999/xlink" width="500" zoomAndPan="magnify" viewBox="0 0 375 374.999991" height="300" preserveAspectRatio="xMidYMid meet" version="1.0"><defs><g/><clipPath id="874db56616"><path d="M 111 145.078125 L 123 145.078125 L 123 158 L 111 158 Z M 111 145.078125 " clip-rule="nonzero"/></clipPath><clipPath id="369667bd92"><path d="M 103.722656 156 L 125.296875 156 L 125.296875 166.828125 L 103.722656 166.828125 Z M 103.722656 156 " clip-rule="nonzero"/></clipPath><clipPath id="b51bccb6ec"><path d="M 10.425781 106.707031 L 160.425781 106.707031 L 160.425781 256.707031 L 10.425781 256.707031 Z M 10.425781 106.707031 " clip-rule="nonzero"/></clipPath></defs><path fill="#1e88e5" d="M 106.09375 164.929688 C 106.09375 165.023438 106.125 165.101562 106.191406 165.164062 C 106.257812 165.230469 106.335938 165.261719 106.425781 165.261719 C 106.519531 165.261719 106.597656 165.230469 106.664062 165.164062 C 106.726562 165.101562 106.757812 165.023438 106.757812 164.929688 C 106.757812 164.839844 106.726562 164.761719 106.664062 164.695312 C 106.597656 164.628906 106.519531 164.597656 106.425781 164.597656 C 106.335938 164.597656 106.257812 164.628906 106.191406 164.695312 C 106.125 164.761719 106.09375 164.839844 106.09375 164.929688 Z M 106.09375 164.929688 " fill-opacity="1" fill-rule="nonzero"/><path fill="#1e88e5" d="M 116.609375 154.722656 C 116.40625 154.695312 116.226562 154.519531 116.226562 154.289062 L 116.226562 153.777344 C 116.226562 153.699219 116.328125 153.546875 116.480469 153.46875 L 116.582031 153.417969 Z M 116.609375 154.722656 " fill-opacity="1" fill-rule="nonzero"/><g clip-path="url(#874db56616)"><path fill="#1e88e5" d="M 119.21875 157.128906 L 114.714844 157.128906 C 114.640625 157.128906 113.257812 157.128906 112.4375 156.179688 C 111.980469 155.644531 111.773438 154.925781 111.902344 154.058594 C 112.234375 151.320312 114.691406 149.070312 115.535156 148.503906 C 115.535156 148.503906 114.308594 147.046875 114.28125 147.023438 C 114.128906 146.636719 114.308594 146.203125 114.691406 146.050781 L 115.203125 145.84375 C 115.226562 145.410156 115.585938 145.078125 116.019531 145.078125 L 117.890625 145.078125 C 118.324219 145.078125 118.683594 145.410156 118.707031 145.84375 L 119.21875 146.050781 C 119.601562 146.203125 119.78125 146.636719 119.628906 147.023438 C 119.601562 147.046875 118.375 148.503906 118.375 148.503906 C 119.246094 149.09375 121.699219 151.34375 122.035156 154.082031 C 122.136719 154.953125 121.957031 155.667969 121.496094 156.207031 C 120.652344 157.128906 119.296875 157.128906 119.21875 157.128906 Z M 115.585938 151.804688 C 115.585938 151.984375 115.738281 152.113281 115.894531 152.113281 C 116.046875 152.113281 116.199219 151.960938 116.199219 151.804688 L 116.199219 151.574219 C 116.199219 151.371094 116.355469 151.167969 116.582031 151.140625 L 116.582031 152.726562 L 116.148438 152.90625 C 115.816406 153.035156 115.585938 153.390625 115.5625 153.777344 L 115.5625 154.289062 C 115.5625 154.851562 116.019531 155.335938 116.582031 155.363281 L 116.582031 155.746094 C 116.582031 155.925781 116.738281 156.054688 116.890625 156.054688 C 117.042969 156.054688 117.199219 155.898438 117.199219 155.746094 L 117.199219 155.363281 L 117.222656 155.363281 C 117.8125 155.363281 118.296875 154.875 118.296875 154.289062 L 118.296875 154.058594 C 118.296875 153.878906 118.144531 153.75 117.992188 153.75 C 117.8125 153.75 117.683594 153.902344 117.683594 154.058594 L 117.683594 154.289062 C 117.683594 154.519531 117.480469 154.722656 117.25 154.722656 L 117.222656 154.722656 L 117.222656 153.160156 L 117.761719 152.957031 C 118.246094 152.753906 118.347656 152.316406 118.347656 152.085938 L 118.347656 151.574219 C 118.347656 150.988281 117.863281 150.5 117.273438 150.5 C 117.273438 150.5 117.222656 150.5 117.222656 150.5 L 117.222656 150.144531 C 117.222656 149.964844 117.070312 149.835938 116.917969 149.835938 C 116.761719 149.835938 116.609375 149.988281 116.609375 150.144531 L 116.609375 150.5 C 116.046875 150.527344 115.585938 150.988281 115.585938 151.574219 Z M 118.988281 146.664062 L 118.476562 146.457031 L 118.09375 147.175781 C 118.042969 147.277344 117.941406 147.355469 117.8125 147.355469 C 117.632812 147.355469 117.480469 147.199219 117.503906 147.023438 C 117.503906 146.96875 117.53125 146.917969 117.53125 146.867188 C 117.53125 146.867188 118.066406 145.871094 118.09375 145.84375 C 118.066406 145.769531 117.992188 145.71875 117.914062 145.71875 L 116.046875 145.71875 C 115.96875 145.71875 115.894531 145.769531 115.867188 145.84375 L 116.40625 146.84375 C 116.480469 146.996094 116.429688 147.199219 116.277344 147.277344 C 116.226562 147.304688 116.175781 147.304688 116.125 147.304688 C 115.996094 147.304688 115.894531 147.226562 115.84375 147.125 L 115.457031 146.40625 L 114.972656 146.613281 C 114.921875 146.636719 114.894531 146.664062 114.894531 146.714844 L 116.226562 148.25 C 116.738281 148.199219 117.25 148.199219 117.761719 148.25 L 119.089844 146.714844 C 119.066406 146.714844 119.039062 146.6875 118.988281 146.664062 Z M 118.988281 146.664062 " fill-opacity="1" fill-rule="nonzero"/></g><path fill="#1e88e5" d="M 117.710938 151.574219 L 117.710938 152.085938 C 117.710938 152.164062 117.632812 152.34375 117.453125 152.394531 L 117.25 152.472656 L 117.25 151.140625 L 117.273438 151.140625 C 117.503906 151.140625 117.710938 151.34375 117.710938 151.574219 Z M 117.710938 151.574219 " fill-opacity="1" fill-rule="nonzero"/><g clip-path="url(#369667bd92)"><path fill="#1e88e5" d="M 103.816406 166.390625 L 107.859375 166.390625 L 107.859375 159.328125 L 104.484375 159.328125 C 104.304688 159.328125 104.175781 159.175781 104.175781 159.019531 C 104.175781 158.867188 104.304688 158.6875 104.484375 158.6875 L 107.859375 158.6875 L 107.859375 157.664062 C 107.859375 157.484375 108.011719 157.359375 108.167969 157.359375 C 108.320312 157.359375 108.472656 157.511719 108.472656 157.664062 L 108.472656 158.6875 L 110.289062 158.6875 C 110.46875 158.6875 110.597656 158.839844 110.597656 158.996094 L 110.597656 159.917969 L 111.1875 159.917969 L 113.054688 158.277344 C 113.105469 158.226562 113.179688 158.203125 113.257812 158.203125 L 118.402344 158.203125 C 118.554688 158.203125 118.707031 158.304688 118.707031 158.484375 L 118.734375 158.6875 C 118.734375 159.148438 118.578125 159.582031 118.296875 159.941406 L 118.65625 159.941406 L 119.933594 157.945312 C 120.34375 157.152344 121.242188 156.511719 122.160156 156.820312 C 122.648438 156.972656 122.671875 157 122.671875 157 C 122.75 157.023438 122.828125 157.101562 122.851562 157.179688 C 122.878906 157.253906 122.878906 157.359375 122.828125 157.433594 L 122.722656 157.613281 C 123.441406 157.230469 124.335938 157.179688 124.949219 157.765625 C 125.332031 158.152344 125.359375 158.175781 125.359375 158.175781 C 125.460938 158.304688 125.460938 158.507812 125.308594 158.636719 C 125.308594 158.636719 120.730469 161.808594 120.730469 161.808594 C 120.703125 161.835938 113.515625 164.496094 113.515625 164.496094 C 113.515625 164.496094 111.441406 164.519531 110.648438 164.519531 L 110.648438 165.03125 C 110.648438 165.210938 110.496094 165.339844 110.339844 165.339844 L 108.523438 165.339844 L 108.523438 166.695312 C 108.523438 166.875 108.371094 167.003906 108.21875 167.003906 L 103.867188 167.003906 C 103.6875 167.003906 103.5625 166.847656 103.5625 166.695312 C 103.5625 166.542969 103.664062 166.390625 103.816406 166.390625 Z M 121.980469 157.433594 C 121.417969 157.253906 120.804688 157.714844 120.523438 158.277344 L 119.832031 159.351562 L 121.699219 158.277344 L 122.136719 157.484375 Z M 110.648438 163.855469 L 113.335938 163.855469 L 120.394531 161.246094 L 124.617188 158.328125 L 124.515625 158.226562 C 124.082031 157.792969 123.339844 157.945312 122.828125 158.304688 L 119.015625 160.503906 C 118.964844 160.53125 118.914062 160.554688 118.859375 160.554688 L 114.28125 160.554688 C 114.101562 160.554688 113.972656 160.402344 113.972656 160.25 C 113.972656 160.09375 114.128906 159.941406 114.28125 159.941406 L 117.199219 159.941406 C 117.683594 159.863281 118.042969 159.328125 118.09375 158.839844 L 113.4375 158.839844 L 111.542969 160.480469 C 111.492188 160.53125 111.414062 160.554688 111.339844 160.554688 L 110.621094 160.554688 Z M 110.648438 163.855469 " fill-opacity="1" fill-rule="nonzero"/></g><g clip-path="url(#b51bccb6ec)"><path fill="#5e35b1" d="M 85.425781 256.707031 C 43.988281 256.707031 10.425781 222.914062 10.425781 181.707031 C 10.425781 140.503906 43.988281 106.707031 85.425781 106.707031 C 126.859375 106.707031 160.425781 140.273438 160.425781 181.707031 C 160.425781 223.144531 126.628906 256.707031 85.425781 256.707031 Z M 85.425781 111.339844 C 46.535156 111.339844 15.054688 142.820312 15.054688 181.707031 C 15.054688 220.597656 46.535156 252.078125 85.425781 252.078125 C 124.3125 252.078125 155.796875 220.597656 155.796875 181.707031 C 155.796875 142.820312 124.082031 111.339844 85.425781 111.339844 Z M 85.425781 111.339844 " fill-opacity="1" fill-rule="nonzero"/></g><g fill="#1e88e5" fill-opacity="1"><g transform="translate(45.539251, 216.10434)"><g><path d="M 52.859375 -4.574219 L 44.339844 -30.296875 L 53.175781 -57.75 C 53.332031 -58.226562 53.414062 -58.539062 53.414062 -59.015625 C 53.414062 -60.988281 51.753906 -62.5625 49.785156 -62.5625 L 35.898438 -62.5625 C 34.160156 -62.5625 32.976562 -61.460938 32.269531 -59.015625 C 32.269531 -59.015625 28.953125 -48.441406 27.613281 -44.890625 C 27.375 -44.417969 27.0625 -43.394531 26.824219 -42.839844 C 26.746094 -42.523438 26.585938 -42.128906 26.429688 -41.734375 C 26.273438 -41.261719 25.800781 -40.945312 25.167969 -40.945312 C 24.773438 -40.945312 23.746094 -41.261719 23.746094 -42.210938 L 23.746094 -59.171875 C 23.746094 -61.144531 22.089844 -62.800781 20.117188 -62.800781 L 6.234375 -62.800781 C 4.261719 -62.800781 2.605469 -61.144531 2.605469 -59.171875 L 2.605469 -3.472656 C 2.605469 -1.5 4.261719 0.078125 6.234375 0.078125 L 20.117188 0.078125 C 22.089844 0.078125 23.746094 -1.5 23.746094 -3.472656 L 23.746094 -19.171875 C 23.746094 -19.804688 24.300781 -20.277344 24.773438 -20.355469 C 25.246094 -20.511719 25.957031 -20.277344 26.195312 -19.488281 C 27.0625 -17.121094 28.007812 -14.4375 32.109375 -2.050781 C 32.191406 -1.816406 33.058594 0.078125 35.265625 0.078125 L 49.941406 0.078125 C 50.964844 0 51.835938 -0.550781 52.464844 -1.421875 C 53.019531 -2.289062 53.175781 -3.472656 52.859375 -4.574219 Z M 52.859375 -4.574219 "/></g></g></g><path stroke-linecap="butt" transform="matrix(0.411688, 0, 0, 0.411688, -75.434352, 151.145176)" fill="none" stroke-linejoin="miter" d="M 428.819868 141.86875 L 408.144679 79.406718 L 429.616892 12.731844 C 429.986939 11.564773 430.176707 10.81519 430.176707 9.648119 C 430.176707 4.875462 426.153632 1.032667 421.380975 1.032667 L 387.64977 1.032667 C 383.436927 1.032667 380.533482 3.698902 378.806596 9.648119 C 378.806596 9.648119 370.760446 35.333175 367.534396 43.939139 C 366.917651 45.10621 366.177557 47.592167 365.608254 48.949006 C 365.427974 49.698588 365.000997 50.675892 364.63095 51.615242 C 364.251415 52.782313 363.084344 53.531895 361.585179 53.531895 C 360.607875 53.531895 358.121919 52.782313 358.121919 50.486124 L 358.121919 9.268584 C 358.121919 4.495927 354.098844 0.472852 349.278745 0.472852 L 315.594982 0.472852 C 310.774883 0.472852 306.751808 4.495927 306.751808 9.268584 L 306.751808 144.582428 C 306.751808 149.355085 310.774883 153.188392 315.594982 153.188392 L 349.278745 153.188392 C 354.098844 153.188392 358.121919 149.355085 358.121919 144.582428 L 358.121919 106.448613 C 358.121919 104.902006 359.478758 103.734935 360.607875 103.545167 C 361.774947 103.17512 363.501832 103.734935 364.071135 105.651588 C 366.177557 111.401549 368.464257 117.91058 378.42706 148.0362 C 378.616828 148.605503 380.723249 153.188392 386.103163 153.188392 L 421.76051 153.188392 C 424.236978 152.998624 426.3434 151.641786 427.890006 149.535364 C 429.246845 147.428943 429.616892 144.582428 428.819868 141.86875 Z M 428.819868 141.86875 " stroke="#1e88e5" stroke-width="3.114264" stroke-opacity="1" stroke-miterlimit="4"/><g fill="#5e35b1" fill-opacity="1"><g transform="translate(77.107556, 215.959837)"><g><path d="M 47.070312 -42.738281 C 47.429688 -43.035156 47.785156 -43.808594 47.785156 -44.578125 C 47.785156 -46.417969 46.359375 -47.546875 44.816406 -47.546875 L 34.070312 -47.546875 C 33.359375 -47.546875 32.765625 -47.191406 32.230469 -46.417969 L 24.398438 -35.617188 L 16.976562 -46.417969 C 16.382812 -47.367188 15.433594 -47.546875 14.78125 -47.546875 L 3.976562 -47.546875 C 2.433594 -47.546875 1.007812 -46.417969 1.007812 -44.578125 C 1.007812 -43.808594 1.367188 -43.035156 1.78125 -42.738281 L 15.847656 -22.617188 L 15.847656 -3.382812 C 15.847656 -1.425781 17.75 0 19.589844 0 L 29.203125 0 C 31.042969 0 33.003906 -1.425781 33.003906 -3.382812 L 33.003906 -22.617188 Z M 47.070312 -42.738281 "/></g></g></g><path stroke-linecap="butt" transform="matrix(0.309742, 0, 0, 0.309742, -9.306869, 167.086467)" fill="none" stroke-linejoin="miter" d="M 437.544019 15.030977 C 438.716872 14.047295 439.839279 11.562865 439.839279 9.078436 C 439.839279 3.138507 435.24876 -0.506163 430.242068 -0.506163 L 395.573561 -0.506163 C 393.278302 -0.506163 391.361382 0.666689 389.633632 3.138507 L 364.322722 37.996182 L 340.361223 3.138507 C 338.444303 0.0487344 335.404976 -0.506163 333.298886 -0.506163 L 298.403376 -0.506163 C 293.434518 -0.506163 288.85661 3.138507 288.85661 9.078436 C 288.85661 11.562865 289.979017 14.047295 291.328428 15.030977 L 336.766998 79.96664 L 336.766998 142.102591 C 336.766998 148.42086 342.896097 152.998768 348.836027 152.998768 L 379.859862 152.998768 C 385.799792 152.998768 392.118061 148.42086 392.118061 142.102591 L 392.118061 79.96664 Z M 437.544019 15.030977 " stroke="#5e35b1" stroke-width="3.114264" stroke-opacity="1" stroke-miterlimit="4"/><g fill="#5e35b1" fill-opacity="1"><g transform="translate(164.058188, 189.36712)"><g><path d="M 10.203125 0 L 5.8125 -6.5625 L 5.8125 0 L 1.0625 0 L 1.0625 -15.125 L 5.8125 -15.125 L 5.8125 -8.75 L 10.140625 -15.125 L 15.5 -15.125 L 10.296875 -7.875 L 15.84375 0 Z M 10.203125 0 "/></g></g></g><g fill="#5e35b1" fill-opacity="1"><g transform="translate(180.178667, 189.36712)"><g><path d="M 10.765625 -2.28125 L 5.71875 -2.28125 L 4.984375 0 L 0 0 L 5.53125 -15.125 L 11 -15.125 L 16.515625 0 L 11.515625 0 Z M 9.609375 -5.859375 L 8.25 -10.0625 L 6.875 -5.859375 Z M 9.609375 -5.859375 "/></g></g></g><g fill="#5e35b1" fill-opacity="1"><g transform="translate(196.683484, 189.36712)"><g><path d="M 6.984375 0.15625 C 5.171875 0.15625 3.675781 -0.265625 2.5 -1.109375 C 1.332031 -1.960938 0.695312 -3.207031 0.59375 -4.84375 L 5.640625 -4.84375 C 5.710938 -3.976562 6.097656 -3.546875 6.796875 -3.546875 C 7.046875 -3.546875 7.257812 -3.601562 7.4375 -3.71875 C 7.613281 -3.84375 7.703125 -4.035156 7.703125 -4.296875 C 7.703125 -4.648438 7.507812 -4.9375 7.125 -5.15625 C 6.75 -5.375 6.15625 -5.628906 5.34375 -5.921875 C 4.375 -6.253906 3.570312 -6.582031 2.9375 -6.90625 C 2.300781 -7.238281 1.753906 -7.71875 1.296875 -8.34375 C 0.847656 -8.976562 0.628906 -9.785156 0.640625 -10.765625 C 0.640625 -11.742188 0.890625 -12.578125 1.390625 -13.265625 C 1.898438 -13.960938 2.59375 -14.488281 3.46875 -14.84375 C 4.34375 -15.195312 5.328125 -15.375 6.421875 -15.375 C 8.273438 -15.375 9.742188 -14.945312 10.828125 -14.09375 C 11.921875 -13.238281 12.5 -12.035156 12.5625 -10.484375 L 7.453125 -10.484375 C 7.441406 -10.910156 7.332031 -11.21875 7.125 -11.40625 C 6.925781 -11.59375 6.6875 -11.6875 6.40625 -11.6875 C 6.207031 -11.6875 6.039062 -11.617188 5.90625 -11.484375 C 5.78125 -11.347656 5.71875 -11.160156 5.71875 -10.921875 C 5.71875 -10.578125 5.90625 -10.289062 6.28125 -10.0625 C 6.664062 -9.84375 7.269531 -9.578125 8.09375 -9.265625 C 9.050781 -8.910156 9.835938 -8.566406 10.453125 -8.234375 C 11.078125 -7.910156 11.613281 -7.457031 12.0625 -6.875 C 12.519531 -6.289062 12.75 -5.554688 12.75 -4.671875 C 12.75 -3.753906 12.519531 -2.925781 12.0625 -2.1875 C 11.613281 -1.457031 10.953125 -0.882812 10.078125 -0.46875 C 9.210938 -0.0507812 8.179688 0.15625 6.984375 0.15625 Z M 6.984375 0.15625 "/></g></g></g><g fill="#5e35b1" fill-opacity="1"><g transform="translate(210.028255, 189.36712)"><g><path d="M 10.765625 -2.28125 L 5.71875 -2.28125 L 4.984375 0 L 0 0 L 5.53125 -15.125 L 11 -15.125 L 16.515625 0 L 11.515625 0 Z M 9.609375 -5.859375 L 8.25 -10.0625 L 6.875 -5.859375 Z M 9.609375 -5.859375 "/></g></g></g><g fill="#5e35b1" fill-opacity="1"><g transform="translate(226.533072, 189.36712)"><g><path d="M 19.25 -15.125 L 19.25 0 L 14.53125 0 L 14.53125 -7.546875 L 12.203125 0 L 8.140625 0 L 5.8125 -7.546875 L 5.8125 0 L 1.0625 0 L 1.0625 -15.125 L 6.875 -15.125 L 10.203125 -6.046875 L 13.453125 -15.125 Z M 19.25 -15.125 "/></g></g></g><g fill="#5e35b1" fill-opacity="1"><g transform="translate(246.838472, 189.36712)"><g/></g></g><g fill="#5e35b1" fill-opacity="1"><g transform="translate(250.468251, 189.36712)"><g><path d="M 15.59375 -15.125 L 10.171875 -4.59375 L 10.171875 0 L 5.421875 0 L 5.421875 -4.59375 L 0 -15.125 L 5.421875 -15.125 L 7.84375 -9.765625 L 10.25 -15.125 Z M 15.59375 -15.125 "/></g></g></g><g fill="#5e35b1" fill-opacity="1"><g transform="translate(266.054943, 189.36712)"><g><path d="M 10.765625 -2.28125 L 5.71875 -2.28125 L 4.984375 0 L 0 0 L 5.53125 -15.125 L 11 -15.125 L 16.515625 0 L 11.515625 0 Z M 9.609375 -5.859375 L 8.25 -10.0625 L 6.875 -5.859375 Z M 9.609375 -5.859375 "/></g></g></g><g fill="#5e35b1" fill-opacity="1"><g transform="translate(282.55976, 189.36712)"><g><path d="M 15.578125 0 L 10.828125 0 L 5.8125 -7.609375 L 5.8125 0 L 1.0625 0 L 1.0625 -15.125 L 5.8125 -15.125 L 10.828125 -7.390625 L 10.828125 -15.125 L 15.578125 -15.125 Z M 15.578125 0 "/></g></g></g><g fill="#5e35b1" fill-opacity="1"><g transform="translate(299.192682, 189.36712)"><g><path d="M 5.8125 -15.125 L 5.8125 0 L 1.0625 0 L 1.0625 -15.125 Z M 5.8125 -15.125 "/></g></g></g><g fill="#5e35b1" fill-opacity="1"><g transform="translate(306.067903, 189.36712)"><g><path d="M 19.25 -15.125 L 19.25 0 L 14.53125 0 L 14.53125 -7.546875 L 12.203125 0 L 8.140625 0 L 5.8125 -7.546875 L 5.8125 0 L 1.0625 0 L 1.0625 -15.125 L 6.875 -15.125 L 10.203125 -6.046875 L 13.453125 -15.125 Z M 19.25 -15.125 "/></g></g></g><g fill="#5e35b1" fill-opacity="1"><g transform="translate(326.373303, 189.36712)"><g><path d="M 7.375 -15.125 C 8.945312 -15.125 10.328125 -14.800781 11.515625 -14.15625 C 12.710938 -13.519531 13.628906 -12.628906 14.265625 -11.484375 C 14.910156 -10.347656 15.234375 -9.054688 15.234375 -7.609375 C 15.234375 -6.171875 14.910156 -4.875 14.265625 -3.71875 C 13.628906 -2.5625 12.710938 -1.648438 11.515625 -0.984375 C 10.328125 -0.328125 8.945312 0 7.375 0 L 1.0625 0 L 1.0625 -15.125 Z M 6.9375 -4.234375 C 8.007812 -4.234375 8.859375 -4.523438 9.484375 -5.109375 C 10.109375 -5.691406 10.421875 -6.523438 10.421875 -7.609375 C 10.421875 -8.691406 10.109375 -9.523438 9.484375 -10.109375 C 8.859375 -10.691406 8.007812 -10.984375 6.9375 -10.984375 L 5.8125 -10.984375 L 5.8125 -4.234375 Z M 6.9375 -4.234375 "/></g></g></g><g fill="#5e35b1" fill-opacity="1"><g transform="translate(342.237571, 189.36712)"><g><path d="M 10.765625 -2.28125 L 5.71875 -2.28125 L 4.984375 0 L 0 0 L 5.53125 -15.125 L 11 -15.125 L 16.515625 0 L 11.515625 0 Z M 9.609375 -5.859375 L 8.25 -10.0625 L 6.875 -5.859375 Z M 9.609375 -5.859375 "/></g></g></g><path stroke-linecap="butt" transform="matrix(0.75, 0, 0, 0.75, 149.288783, 172.333479)" fill="none" stroke-linejoin="miter" d="M 34.286833 21.998071 L 28.417041 13.258487 L 28.417041 21.998071 L 22.099332 21.998071 L 22.099332 1.836611 L 28.417041 1.836611 L 28.417041 10.326195 L 34.203499 1.836611 L 41.349333 1.836611 L 34.396208 11.492862 L 41.802458 21.998071 Z M 56.516001 18.956404 L 49.802459 18.956404 L 48.79725 21.998071 L 42.167041 21.998071 L 49.542042 1.836611 L 56.828501 1.836611 L 64.17746 21.998071 L 57.516001 21.998071 Z M 54.979542 14.201195 L 53.156625 8.586612 L 51.338917 14.201195 Z M 73.484752 22.201196 C 71.073293 22.201196 69.08371 21.638696 67.516001 20.503279 C 65.948293 19.373071 65.099335 17.716821 64.974335 15.534529 L 71.687877 15.534529 C 71.786835 16.690779 72.30246 17.274112 73.234752 17.274112 C 73.568085 17.274112 73.859752 17.190779 74.094127 17.029321 C 74.33371 16.867862 74.453502 16.617862 74.453502 16.279321 C 74.453502 15.800154 74.198294 15.414737 73.682669 15.123071 C 73.167043 14.826196 72.370168 14.487654 71.292043 14.107445 C 70.000377 13.65432 68.932668 13.206404 68.088918 12.774112 C 67.245168 12.336612 66.516001 11.701195 65.911835 10.867862 C 65.30246 10.02932 65.010793 8.956403 65.026418 7.649112 C 65.026418 6.336612 65.36496 5.222028 66.036835 4.305362 C 66.713918 3.383486 67.635793 2.68557 68.80246 2.211611 C 69.969127 1.732445 71.286835 1.492861 72.745168 1.492861 C 75.213919 1.492861 77.172252 2.065778 78.620169 3.206403 C 80.078502 4.34182 80.838919 5.945987 80.917044 8.018903 L 74.11496 8.018903 C 74.094127 7.445987 73.948294 7.039737 73.682669 6.794945 C 73.422252 6.544945 73.099335 6.419945 72.719127 6.419945 C 72.448293 6.419945 72.229543 6.508487 72.057668 6.690778 C 71.891002 6.867862 71.807668 7.12307 71.807668 7.445987 C 71.807668 7.899112 72.057668 8.27932 72.557668 8.570987 C 73.062877 8.867862 73.86496 9.222028 74.963919 9.638695 C 76.23996 10.112654 77.286835 10.570987 78.11496 11.008487 C 78.937877 11.440779 79.656627 12.050154 80.260794 12.831404 C 80.870169 13.607445 81.172252 14.586612 81.172252 15.763696 C 81.172252 16.998071 80.870169 18.102237 80.260794 19.081404 C 79.656627 20.055363 78.771211 20.820988 77.61496 21.373071 C 76.453502 21.925154 75.078502 22.201196 73.484752 22.201196 Z M 96.318087 18.956404 L 89.599336 18.956404 L 88.599336 21.998071 L 81.963919 21.998071 L 89.344128 1.836611 L 96.630587 1.836611 L 103.979545 21.998071 L 97.318087 21.998071 Z M 94.781628 14.201195 L 92.958711 8.586612 L 91.135795 14.201195 Z M 129.630589 1.836611 L 129.630589 21.998071 L 123.333713 21.998071 L 123.333713 11.945987 L 120.234755 21.998071 L 114.823296 21.998071 L 111.719129 11.945987 L 111.719129 21.998071 L 105.396212 21.998071 L 105.396212 1.836611 L 113.141004 1.836611 L 117.583713 13.940779 L 121.911838 1.836611 Z M 156.677466 1.836611 L 149.44309 15.873071 L 149.44309 21.998071 L 143.114965 21.998071 L 143.114965 15.873071 L 135.885798 1.836611 L 143.114965 1.836611 L 146.333715 8.982445 L 149.557673 1.836611 Z M 171.021217 18.956404 L 164.302466 18.956404 L 163.302466 21.998071 L 156.667049 21.998071 L 164.047258 1.836611 L 171.333717 1.836611 L 178.682675 21.998071 L 172.021217 21.998071 Z M 169.484758 14.201195 L 167.661841 8.586612 L 165.838925 14.201195 Z M 199.437885 21.998071 L 193.114968 21.998071 L 186.422259 11.862654 L 186.422259 21.998071 L 180.099342 21.998071 L 180.099342 1.836611 L 186.422259 1.836611 L 193.114968 12.149112 L 193.114968 1.836611 L 199.437885 1.836611 Z M 208.599344 1.836611 L 208.599344 21.998071 L 202.276427 21.998071 L 202.276427 1.836611 Z M 235.677471 1.836611 L 235.677471 21.998071 L 229.380595 21.998071 L 229.380595 11.945987 L 226.281637 21.998071 L 220.870178 21.998071 L 217.766011 11.945987 L 217.766011 21.998071 L 211.443094 21.998071 L 211.443094 1.836611 L 219.187886 1.836611 L 223.630595 13.940779 L 227.95872 1.836611 Z M 246.917055 1.836611 C 249.02643 1.836611 250.875388 2.263695 252.458722 3.12307 C 254.042055 3.977236 255.260805 5.159528 256.114972 6.680362 C 256.969139 8.195987 257.396222 9.925154 257.396222 11.862654 C 257.396222 13.77932 256.969139 15.508487 256.114972 17.050154 C 255.260805 18.581404 254.042055 19.794946 252.458722 20.680363 C 250.875388 21.560571 249.02643 21.998071 246.917055 21.998071 L 238.516013 21.998071 L 238.516013 1.836611 Z M 246.344138 16.362654 C 247.771222 16.362654 248.896222 15.972029 249.734763 15.190779 C 250.573305 14.414737 250.989972 13.305362 250.989972 11.862654 C 250.989972 10.419945 250.573305 9.31057 249.734763 8.52932 C 248.896222 7.753278 247.771222 7.362653 246.344138 7.362653 L 244.83893 7.362653 L 244.83893 16.362654 Z M 272.59414 18.956404 L 265.880598 18.956404 L 264.875389 21.998071 L 258.245181 21.998071 L 265.620181 1.836611 L 272.90664 1.836611 L 280.255599 21.998071 L 273.599348 21.998071 Z M 271.057681 14.201195 L 269.234765 8.586612 L 267.417056 14.201195 Z M 271.057681 14.201195 " stroke="#5e35b1" stroke-width="0.462847" stroke-opacity="1" stroke-miterlimit="4"/></svg>